<svg width="50" height="50" viewBox="0 0 50 50" fill="none" xmlns="http://www.w3.org/2000/svg">
<path d="M25 0.892822C17.5285 0.892822 11.4393 2.99996 7.21782 7.21782C2.99639 11.4357 0.892822 17.5285 0.892822 25C0.892822 32.4714 2.99996 38.5607 7.21782 42.7821C11.4357 47.0035 17.5285 49.1071 25 49.1071C32.4714 49.1071 38.5607 47 42.7821 42.7821C47.0035 38.5643 49.1071 32.4714 49.1071 25C49.1071 17.5285 47 11.4393 42.7821 7.21782C38.5643 2.99639 32.4714 0.892822 25 0.892822Z" fill="#8FBFFA"/>
<path fill-rule="evenodd" clip-rule="evenodd" d="M1.47859 18.5822C9.46073 19.2822 16.8714 18.0108 23.1679 15.7965C19.9773 11.2522 16.0861 7.24289 11.6393 3.91792C13.1036 3.11792 14.6917 2.47625 16.4036 1.99292C20.6454 5.46516 24.3551 9.54066 27.4143 14.0893C33.175 11.4751 37.6786 8.16078 40.3643 5.17506C41.5812 6.04108 42.6913 7.04809 43.6714 8.17506C40.6572 11.5143 35.8429 15.0929 29.7607 17.9251C31.1536 20.4179 32.2964 22.9286 33.2214 25.4143C38.5286 24.7001 43.8179 24.8501 49.1036 25.5393C49.0822 27.087 48.9679 28.5727 48.7607 29.9965C43.975 29.3572 39.2786 29.1929 34.6286 29.7358C36.4429 36.2001 36.8429 42.2643 36.4036 47.0251C34.956 47.637 33.406 48.1132 31.7536 48.4536C31.7536 48.3465 31.7619 48.2394 31.7786 48.1322C32.4393 43.6215 32.1893 37.3072 30.2 30.4751C29.5024 30.6274 28.8072 30.7977 28.1143 30.9858C21.2964 32.8429 14.4072 36.5072 7.34287 42.9036L7.21787 42.7822C6.20239 41.7641 5.30394 40.6357 4.5393 39.4179C12.0036 32.7143 19.4393 28.7215 26.9429 26.6786C27.5476 26.5143 28.1512 26.3632 28.7536 26.2251C27.8964 24.0465 26.8607 21.8429 25.6107 19.6536C17.7409 22.5964 9.31315 23.7446 0.942871 23.0143C1.0262 21.4715 1.20478 19.9941 1.47859 18.5822Z" fill="#2859C5"/>
</svg>
