<svg width="50" height="50" viewBox="0 0 50 50" fill="none" xmlns="http://www.w3.org/2000/svg">
<path fill-rule="evenodd" clip-rule="evenodd" d="M42.2183 0.349991C43.2532 -0.027116 44.3742 -0.100974 45.4497 0.137099C46.5251 0.375172 47.5102 0.915281 48.2893 1.69395C49.0683 2.47262 49.6089 3.45748 49.8475 4.5328C50.0861 5.60812 50.0128 6.72919 49.6361 7.76428L36.8719 46.0214C36.5613 46.9615 36.0147 47.8062 35.2843 48.4747C34.554 49.1432 33.6643 49.613 32.7004 49.8393C31.7388 50.0731 30.733 50.0532 29.7814 49.7815C28.8298 49.5098 27.965 48.9956 27.2719 48.2893L20.4219 41.4714L13.229 45.1929C12.9533 45.3358 12.645 45.4044 12.3347 45.3919C12.0244 45.3793 11.7227 45.286 11.4594 45.1212C11.1962 44.9564 10.9804 44.7258 10.8336 44.4521C10.6867 44.1784 10.6137 43.8712 10.6219 43.5607L10.9183 32.1893L36.079 13.9143C36.3163 13.7419 36.5174 13.5245 36.6707 13.2744C36.824 13.0244 36.9265 12.7466 36.9724 12.4569C37.0184 12.1672 37.0068 11.8713 36.9384 11.5861C36.8699 11.3009 36.746 11.032 36.5736 10.7946C36.4013 10.5573 36.1839 10.3563 35.9338 10.203C35.6838 10.0497 35.406 9.94715 35.1163 9.90121C34.8266 9.85528 34.5307 9.86686 34.2455 9.93528C33.9603 10.0037 33.6913 10.1276 33.454 10.3L7.86829 28.8857L1.68972 22.7071C1.02384 22.0411 0.532911 21.2207 0.260621 20.3191C-0.011669 19.4175 -0.0568826 18.4626 0.129003 17.5393C0.315588 16.5303 0.767165 15.589 1.43743 14.8121C2.1077 14.0351 2.97254 13.4504 3.94329 13.1178H3.95757L42.2183 0.349991Z" fill="#005CFF"/>
</svg>
